<svg xmlns="http://www.w3.org/2000/svg" viewBox="0 0 100 100">
  <style>
    .circuit-bg {
      fill: #333;
    }
    .outer-border {
      fill: #f0f0f0;
    }
    .text {
      fill: #ffffff;
      font-family: Arial, sans-serif;
      font-weight: bold;
    }
    .circuit-lines {
      fill: none;
      stroke: #999;
      stroke-width: 1;
    }
    .circuit-dots {
      fill: #aaa;
    }
    .glow {
      fill: #4a6cf7;
      opacity: 0.3;
    }
  </style>
  
  <!-- Background glow -->
  <circle cx="50" cy="50" r="48" class="glow" />
  
  <!-- Outer rounded square border -->
  <rect x="10" y="10" width="80" height="80" rx="15" ry="15" class="outer-border" />
  
  <!-- Inner circuit board background -->
  <rect x="12" y="12" width="76" height="76" rx="13" ry="13" class="circuit-bg" />
  
  <!-- Circuit lines and dots -->
  <g class="circuit-lines">
    <!-- Horizontal lines -->
    <line x1="20" y1="24" x2="80" y2="24" />
    <line x1="16" y1="36" x2="60" y2="36" />
    <line x1="40" y1="48" x2="84" y2="48" />
    <line x1="20" y1="60" x2="70" y2="60" />
    <line x1="30" y1="72" x2="80" y2="72" />
    
    <!-- Vertical lines -->
    <line x1="24" y1="16" x2="24" y2="50" />
    <line x1="36" y1="30" x2="36" y2="80" />
    <line x1="48" y1="16" x2="48" y2="40" />
    <line x1="60" y1="40" x2="60" y2="84" />
    <line x1="72" y1="20" x2="72" y2="60" />
    
    <!-- Diagonal lines -->
    <line x1="30" y1="20" x2="50" y2="40" />
    <line x1="50" y1="40" x2="70" y2="60" />
    <line x1="70" y1="30" x2="80" y2="40" />
    <line x1="20" y1="50" x2="40" y2="70" />
  </g>
  
  <!-- Circuit dots -->
  <g class="circuit-dots">
    <circle cx="24" cy="24" r="2" />
    <circle cx="36" cy="36" r="1.5" />
    <circle cx="48" cy="24" r="1.8" />
    <circle cx="60" cy="48" r="2" />
    <circle cx="72" cy="36" r="1.5" />
    <circle cx="24" cy="60" r="1.8" />
    <circle cx="36" cy="72" r="2" />
    <circle cx="60" cy="72" r="1.5" />
    <circle cx="72" cy="60" r="1.8" />
    <circle cx="48" cy="48" r="1.2" />
  </g>
  
  <!-- Text -->
  <text x="50" y="55" font-size="16" class="text" text-anchor="middle">A.AI</text>
</svg> 